<?xml version="1.0" standalone="no"?>
<!DOCTYPE svg PUBLIC "-//W3C//DTD SVG 20010904//EN"
 "http://www.w3.org/TR/2001/REC-SVG-20010904/DTD/svg10.dtd">
<svg version="1.0" xmlns="http://www.w3.org/2000/svg"
 width="1206.000000pt" height="740.000000pt" viewBox="0 0 1206.000000 740.000000"
 preserveAspectRatio="xMidYMid meet">

<g transform="translate(0.000000,740.000000) scale(0.100000,-0.100000)"
fill="#000000" stroke="none">
<path d="M9120 7252 c-65 -30 -143 -125 -200 -244 l-36 -78 -35 36 c-56 58
-149 124 -229 163 -68 32 -83 36 -160 36 -77 0 -90 -3 -140 -31 -68 -38 -121
-106 -155 -197 -27 -74 -55 -215 -55 -279 0 -35 -2 -39 -20 -33 -44 14 -138 8
-171 -11 -91 -53 -97 -200 -12 -275 44 -38 82 -55 146 -64 40 -6 47 -11 47
-30 l0 -22 -111 29 c-256 65 -600 106 -804 95 -189 -11 -827 -119 -808 -138 4
-4 73 -27 153 -52 l144 -45 -74 -6 c-352 -33 -455 -61 -576 -157 -88 -70 -108
-102 -86 -136 4 -7 51 -17 106 -23 113 -13 237 -51 284 -86 65 -50 142 -173
142 -228 0 -22 4 -25 28 -21 139 24 305 32 329 17 8 -5 -40 -38 -130 -91 -187
-111 -287 -189 -343 -269 -25 -36 -43 -66 -41 -68 2 -3 17 0 33 7 27 10 84 26
334 92 52 13 124 28 160 32 l65 7 -95 -68 c-156 -113 -268 -235 -326 -357 -20
-43 -34 -80 -32 -83 3 -3 32 11 64 31 33 19 62 35 66 35 4 0 -10 -24 -32 -52
-41 -54 -227 -408 -214 -408 4 0 72 38 153 84 193 111 235 131 339 165 101 34
217 52 191 30 -23 -20 -109 -144 -109 -158 0 -6 9 -11 21 -11 40 0 226 -42
313 -71 127 -42 217 -93 273 -152 26 -28 42 -52 36 -54 -6 -2 -59 3 -118 12
-163 24 -417 35 -573 24 -391 -27 -694 -122 -1000 -312 l-103 -65 -207 131
c-1048 659 -1640 878 -2722 1007 -321 39 -745 43 -1100 11 -258 -24 -645 -93
-979 -176 -325 -81 -479 -136 -570 -204 l-52 -39 108 -37 c59 -20 158 -52 218
-70 107 -33 109 -34 60 -34 -46 -1 -281 22 -348 34 l-28 5 32 -58 c66 -117
126 -198 214 -287 152 -155 308 -266 580 -414 82 -44 145 -81 138 -81 -44 0
-265 100 -436 197 -44 24 -81 43 -83 40 -8 -8 293 -249 361 -289 690 -402
1059 -546 1595 -620 62 -8 195 -13 380 -12 470 1 563 16 1684 275 380 87 691
157 693 155 2 -1 -20 -41 -47 -87 -75 -126 -146 -276 -185 -391 -69 -208 -87
-342 -86 -665 1 -134 -1 -243 -4 -243 -3 0 -40 20 -83 43 -119 68 -165 82
-262 82 -161 0 -269 -54 -430 -215 -175 -175 -283 -345 -535 -845 -166 -329
-215 -460 -223 -600 -5 -108 9 -146 81 -212 69 -64 137 -68 242 -15 96 48 300
202 434 327 66 62 235 243 284 305 l28 35 -20 -51 c-34 -88 -45 -166 -31 -222
18 -75 86 -132 158 -132 42 0 140 52 227 120 82 65 381 358 451 443 40 47 41
48 154 73 183 41 346 112 470 207 30 23 59 45 65 49 6 4 47 1 91 -7 225 -40
387 4 524 144 81 83 122 151 167 279 l35 99 111 -38 c197 -66 312 -84 547 -84
189 0 224 3 440 38 253 40 280 47 412 113 48 24 91 44 96 44 5 0 35 -39 67
-86 298 -439 688 -805 1285 -1204 259 -174 413 -222 553 -174 57 19 138 90
175 153 25 42 27 55 26 141 -2 175 -45 269 -438 959 l-288 505 69 142 68 141
26 -13 c25 -13 26 -14 17 -75 -4 -35 -27 -107 -52 -163 -24 -56 -41 -103 -39
-106 5 -6 164 156 215 220 l36 44 49 -27 c26 -15 96 -52 155 -82 62 -32 109
-62 112 -73 24 -75 224 -150 297 -112 15 8 37 5 93 -14 198 -66 434 -101 630
-93 141 5 219 26 284 74 64 48 80 128 41 206 -77 153 -201 273 -478 462 -97
66 -142 106 -177 156 -22 32 -49 51 -125 90 -54 27 -115 53 -137 57 -21 5
-133 67 -249 138 l-212 129 -21 60 c-12 33 -46 106 -75 163 -51 98 -52 102
-32 106 12 3 87 17 167 32 291 54 354 77 705 262 237 125 241 128 335 222 104
104 172 199 232 327 58 124 78 215 78 355 0 178 -24 219 -173 291 -127 62
-179 75 -352 93 -206 20 -270 31 -327 56 -56 24 -96 76 -132 172 -48 127 -182
384 -250 480 -39 54 -101 126 -137 160 -114 105 -274 186 -427 216 -40 8 -62
17 -62 26 0 25 -278 567 -338 659 -32 50 -79 108 -104 130 -122 107 -308 179
-378 147z m-425 -934 c71 -65 169 -187 201 -250 23 -45 28 -49 51 -43 80 20
78 20 107 -32 15 -26 32 -73 37 -103 18 -98 17 -97 53 -54 17 22 43 52 58 69
l27 30 35 -34 35 -34 11 42 c6 22 14 41 19 41 4 0 34 -9 66 -20 85 -29 88 -28
60 33 -14 28 -21 53 -16 55 15 5 283 -48 324 -63 20 -8 40 -15 42 -15 3 0 5
17 5 39 0 68 70 111 181 111 l41 0 -36 -40 c-44 -49 -46 -80 -7 -142 33 -51
59 -72 151 -118 102 -51 234 -146 297 -214 112 -119 180 -302 197 -531 l4 -50
188 -6 c207 -7 308 -24 473 -81 l93 -32 23 -50 c12 -28 33 -61 46 -73 59 -54
152 -67 227 -33 l42 19 -6 -27 c-46 -213 -184 -448 -334 -570 -64 -51 -503
-285 -613 -327 -129 -48 -342 -94 -552 -119 -185 -22 -292 3 -542 131 l-148
75 160 -159 c103 -101 194 -181 255 -223 182 -125 420 -389 420 -466 0 -134
-92 -346 -232 -532 l-83 -112 -7 113 c-9 168 -69 335 -123 346 -36 6 -45 -25
-45 -155 0 -143 -14 -197 -89 -343 -48 -94 -48 -95 -63 -70 -9 13 -66 114
-128 224 -150 268 -156 277 -183 273 -15 -2 -23 -11 -25 -29 -3 -25 -7 -27
-70 -33 -37 -3 -96 -6 -131 -6 l-63 0 37 42 c41 45 149 262 183 368 62 191 55
415 -17 583 l-21 49 35 -22 c43 -26 44 -19 5 30 -35 44 -182 120 -233 120 -27
0 -44 -12 -106 -74 l-74 -75 -23 56 c-33 80 -56 108 -178 217 l-109 97 -59
-88 -58 -88 0 58 c0 33 15 117 35 197 19 76 35 146 35 154 0 24 -258 -67 -358
-127 -46 -27 -85 -47 -87 -45 -2 1 1 29 6 60 19 121 100 310 228 531 65 113
72 140 41 157 -29 15 -245 42 -312 38 -31 -2 -54 0 -52 4 2 3 67 42 143 84 77
43 139 80 137 81 -2 2 -79 -14 -172 -36 -93 -21 -171 -37 -173 -35 -7 7 71
102 136 165 37 36 101 92 141 124 l74 57 48 -47 47 -47 23 66 c25 69 33 76 66
51 33 -25 40 -17 53 55 15 81 7 78 139 56 45 -7 82 -12 82 -10 0 1 -29 23 -65
48 -41 30 -62 51 -59 60 3 8 -11 39 -32 70 -39 59 -144 313 -169 406 -23 92
-37 221 -30 288 l7 62 99 -51 c55 -28 124 -74 154 -101z m1752 -367 c15 -25 7
-31 -28 -24 -17 3 -29 1 -29 -5 0 -15 56 -60 110 -87 40 -20 97 -82 85 -93 -9
-9 -159 78 -223 129 -72 58 -121 75 -137 49 -4 -6 -11 -8 -16 -4 -15 9 22 32
68 43 21 5 65 9 98 10 49 1 62 -3 72 -18z m147 -241 c12 0 41 -49 33 -56 -2
-2 -21 12 -43 32 -21 19 -31 33 -21 30 10 -3 24 -6 31 -6z m86 -156 c17 -36
30 -67 28 -69 -2 -2 -25 16 -53 40 -46 40 -48 45 -37 69 6 14 16 26 22 26 5 0
23 -30 40 -66z m-10280 -1260 l85 -7 120 -80 c459 -308 877 -496 1204 -541 74
-11 192 -16 349 -17 220 0 234 -1 197 -15 -107 -39 -196 -45 -488 -34 -153 7
-280 10 -283 8 -2 -3 108 -23 244 -46 802 -136 1065 -158 1507 -128 274 19
421 37 585 72 138 29 321 85 409 125 35 16 66 29 70 29 3 0 -28 -34 -69 -75
-41 -41 -72 -75 -68 -75 3 0 48 11 100 25 489 130 806 135 1043 17 28 -13 51
-26 53 -27 5 -4 -88 -118 -102 -126 -6 -3 -40 -12 -76 -18 -36 -7 -285 -64
-555 -126 -1142 -265 -1251 -285 -1650 -304 -466 -23 -850 38 -1275 204 -112
44 -485 224 -585 283 l-70 42 40 0 c51 1 275 56 255 63 -8 3 -55 12 -103 21
-92 15 -194 62 -432 194 -251 139 -446 298 -573 466 -55 73 -63 90 -34 82 9
-3 55 -8 102 -12z m10568 -1363 c54 -38 57 -48 20 -67 -75 -38 -190 -158 -244
-255 -67 -116 -124 -358 -97 -409 18 -36 -1 -53 -46 -40 -57 16 -106 74 -118
139 -27 145 -21 192 46 326 81 164 183 272 303 321 57 24 87 20 136 -15z
m-4493 -96 c98 -25 218 -89 427 -226 297 -196 425 -243 658 -242 158 1 207 16
384 118 147 83 285 143 409 177 67 19 108 23 227 22 132 0 152 -2 225 -28 143
-49 211 -107 274 -233 43 -87 61 -163 60 -258 -1 -120 -8 -127 -49 -47 -47 90
-155 203 -222 232 -102 44 -230 7 -340 -97 -69 -66 -101 -134 -96 -204 l3 -49
-130 -64 c-71 -35 -146 -69 -165 -74 -57 -17 -497 -81 -605 -88 -308 -20 -655
73 -967 257 -64 38 -121 69 -126 69 -5 0 -15 -14 -22 -31 -13 -30 -15 -31 -58
-25 -74 10 -109 -7 -217 -104 -55 -49 -103 -90 -106 -90 -4 0 -19 28 -34 62
-35 78 -41 158 -21 272 9 49 14 92 11 94 -2 3 -54 -1 -115 -8 -61 -7 -112 -11
-114 -9 -9 9 48 181 86 259 118 241 385 376 623 315z m4741 -133 c220 -148
310 -218 385 -300 75 -81 139 -185 139 -225 0 -38 -34 -69 -106 -97 -54 -22
-75 -24 -229 -24 -178 0 -257 11 -434 58 -195 53 -232 67 -242 93 -15 40 -10
96 16 189 34 118 73 196 137 270 56 66 145 144 163 144 6 0 83 -49 171 -108z
m-1062 -1302 c217 -379 286 -541 289 -672 1 -57 -3 -73 -29 -115 -36 -59 -107
-108 -169 -117 -107 -16 -226 32 -455 184 -121 80 -411 291 -516 376 -21 17
-18 31 35 139 122 252 268 363 561 425 155 34 127 55 284 -220z m-5823 149
c175 -67 307 -189 348 -322 15 -51 16 -63 5 -65 -8 -2 -74 -83 -148 -181 -243
-322 -454 -530 -711 -701 -95 -64 -167 -93 -206 -85 -33 7 -96 73 -105 111
-12 47 5 152 42 266 24 73 86 210 174 383 204 403 332 620 373 629 50 11 148
-4 228 -35z m624 -519 c83 -6 179 -11 215 -13 l65 -2 -175 -176 c-251 -253
-393 -359 -461 -344 -117 26 -82 230 84 493 l40 64 41 -6 c23 -3 109 -10 191
-16z"/>
<path d="M9931 5361 c-51 -55 -66 -126 -66 -311 1 -145 3 -172 23 -225 52
-143 149 -137 198 12 27 83 27 340 0 431 -34 114 -99 153 -155 93z"/>
</g>
</svg>
